<?xml version="1.0" encoding="UTF-8"?>
<svg viewBox="0 0 500 500" xmlns="http://www.w3.org/2000/svg">
<path d="M243.11,99.13c-74.68,33.6-6.89,93.48-50,126.1s-160.36-5.09-115.66,79.6c52.49,99.48,282.38,85.66,332-36.36S317.78,65.53,243.11,99.13Z" fill="#A8DADC"/>
<path d="M243.11,99.13c-74.68,33.6-6.89,93.48-50,126.1s-160.36-5.09-115.66,79.6c52.49,99.48,282.38,85.66,332-36.36S317.78,65.53,243.11,99.13Z" fill="#fff" opacity=".9"/>
<ellipse cx="250" cy="416.24" rx="193.89" ry="11.32" fill="#f5f5f5"/>
<rect x="228.99" y="106.59" width="147.33" height="265" rx="8.83" fill="#263238"/>
<path d="M371.35,115.46V362.23a3.61,3.61,0,0,1-3.66,3.61H237.24a3.23,3.23,0,0,1-3.27-3.31V115.17a2.91,2.91,0,0,1,2.8-3h32.61a2.29,2.29,0,0,1,2.1,1.47l1.35,3.32a2.3,2.3,0,0,0,2.1,1.45h55.53a2.28,2.28,0,0,0,2.1-1.43l1.35-3.34a2.31,2.31,0,0,1,2.1-1.47h32.14A3.29,3.29,0,0,1,371.35,115.46Z" fill="#A8DADC"/>
<rect x="233.97" y="127.55" width="137.39" height="224.4" fill="#fff" opacity=".6" style="isolation:isolate"/>
<rect transform="translate(499.91 241.9) rotate(180)" x="249.11" y="119.82" width="1.7" height="2.26" fill="#fff" opacity=".6" style="isolation:isolate"/>
<rect transform="translate(494.38 241.15) rotate(180)" x="246.34" y="119.07" width="1.7" height="3.02" fill="#fff" opacity=".6" style="isolation:isolate"/>
<rect transform="translate(488.85 240.39) rotate(180)" x="243.58" y="118.31" width="1.7" height="3.77" fill="#fff" opacity=".6" style="isolation:isolate"/>
<rect transform="translate(483.32 239.64) rotate(180)" x="240.81" y="117.56" width="1.7" height="4.53" fill="#fff" opacity=".6" style="isolation:isolate"/>
<rect x="354.8" y="118.99" width="1.01" height="2.26" fill="#fff" opacity=".6" style="isolation:isolate"/>
<rect transform="translate(721.01 240.25) rotate(180)" x="356.5" y="118.17" width="8.01" height="3.91" fill="#fff" opacity=".6" style="isolation:isolate"/>
<rect x="235.7" y="236.25" width="133.92" height="27.11" fill="#fff" opacity=".6" style="isolation:isolate"/>
<circle cx="300.75" cy="112.46" r="1.89" fill="#fff" opacity=".6" style="isolation:isolate"/>
<path d="m306.45 112.46a1.21 1.21 0 1 1 -1.2 -1.21 1.21 1.21 0 0 1 1.2 1.21z" fill="#fff" opacity=".6" style="isolation:isolate"/>
<rect x="235.7" y="305.74" width="133.92" height="15.77" fill="#fff" opacity=".6" style="isolation:isolate"/>
<path d="M303.38,310.6v6.3h-.89v-5.52h-1.42v-.78Z" fill="#263238"/>
<path d="m338.3 253.92v1.28h-0.73v-1.28a4.56 4.56 0 0 1 -2.75 -1l0.42-0.88a4 4 0 0 0 2.33 0.91v-2.64c-1.24-0.31-2.56-0.7-2.56-2.25 0-1.12 0.8-2.1 2.56-2.24v-1.3h0.73v1.28a4.66 4.66 0 0 1 2.31 0.7l-0.38 0.91a4 4 0 0 0 -1.93 -0.64v2.64c1.27 0.32 2.64 0.7 2.64 2.25 0 1.14-0.84 2.11-2.64 2.26zm-0.73-4.68v-2.45c-1 0.13-1.45 0.64-1.45 1.24s0.64 0.97 1.45 1.21zm2.25 2.5c0-0.73-0.68-1-1.52-1.24v2.44c1.06-0.1 1.52-0.59 1.52-1.2z" fill="#263238"/>
<path d="m344.3 245.89v8h-1.12v-7h-1.8v-1z" fill="#263238"/>
<path d="M346,253.13a.76.76,0,0,1,.77-.78.78.78,0,0,1,0,1.56A.77.77,0,0,1,346,253.13Z" fill="#263238"/>
<path d="M354.53,249.77c0,2.71-1.53,4.16-3.76,4.16a3.91,3.91,0,0,1-2-.46l.43-.89a2.83,2.83,0,0,0,1.53.38c1.62,0,2.64-1,2.64-3v-.29a2.65,2.65,0,0,1-2.3,1.05,2.45,2.45,0,0,1-2.71-2.41,2.57,2.57,0,0,1,2.81-2.51C353.33,245.8,354.53,247.23,354.53,249.77Zm-1.39-1.51c0-.82-.66-1.54-1.9-1.54a1.57,1.57,0,0,0-1.75,1.55c0,.93.7,1.53,1.81,1.53A1.65,1.65,0,0,0,353.14,248.26Z" fill="#263238"/>
<path d="M361.54,249.77c0,2.71-1.53,4.16-3.76,4.16a3.91,3.91,0,0,1-2-.46l.43-.89a2.81,2.81,0,0,0,1.53.38c1.62,0,2.64-1,2.64-3v-.29a2.65,2.65,0,0,1-2.3,1.05,2.45,2.45,0,0,1-2.71-2.41,2.56,2.56,0,0,1,2.8-2.51C360.34,245.8,361.54,247.23,361.54,249.77Zm-1.39-1.51c0-.82-.66-1.54-1.9-1.54a1.57,1.57,0,0,0-1.75,1.55c0,.93.69,1.53,1.81,1.53A1.65,1.65,0,0,0,360.15,248.26Z" fill="#263238"/>
<path d="M246.05,257.21v.45h-2.63v-.35l1.49-1.44c.39-.38.46-.61.46-.84,0-.38-.26-.61-.78-.61a1.14,1.14,0,0,0-.93.4l-.36-.31a1.69,1.69,0,0,1,1.34-.55c.76,0,1.26.39,1.26,1a1.5,1.5,0,0,1-.61,1.15l-1.12,1.08Z" fill="#263238"/>
<path d="m246.46 255.83c0-1.19 0.64-1.87 1.5-1.87s1.49 0.68 1.49 1.87-0.64 1.87-1.49 1.87-1.5-0.7-1.5-1.87zm2.47 0c0-0.94-0.4-1.41-1-1.41s-1 0.47-1 1.41 0.4 1.41 1 1.41 1-0.47 1-1.41z" fill="#263238"/>
<path d="M249.89,255a.89.89,0,0,1,.86-1c.5,0,.84.4.84,1s-.34,1-.84,1A.89.89,0,0,1,249.89,255Zm1.37,0c0-.44-.19-.7-.51-.7s-.52.26-.52.7.2.7.52.7S251.26,255.41,251.26,255Zm1.7-1h.4l-2.5,3.66h-.41Zm-.74,2.69a.86.86,0,1,1,.84,1C252.56,257.69,252.22,257.29,252.22,256.69Zm1.36,0c0-.43-.2-.7-.52-.7s-.51.26-.51.7.2.71.51.71S253.58,257.13,253.58,256.69Z" fill="#263238"/>
<path d="M254.45,256.28a1.44,1.44,0,1,1,1.44,1.41A1.38,1.38,0,0,1,254.45,256.28Zm2.37,0a.91.91,0,0,0-.93-1,1,1,0,0,0,0,1.95A.9.9,0,0,0,256.82,256.28Z" fill="#263238"/>
<path d="M258.59,254.65v.24h.8v.41h-.79v2.36h-.5V255.3h-.48v-.41h.48v-.25a.83.83,0,0,1,.91-.89.94.94,0,0,1,.57.16l-.15.38a.68.68,0,0,0-.39-.13C258.74,254.16,258.59,254.33,258.59,254.65Z" fill="#263238"/>
<path d="M260.43,254.65v.24h.81v.41h-.8v2.36h-.5V255.3h-.47v-.41h.47v-.25a.83.83,0,0,1,.92-.89.93.93,0,0,1,.56.16l-.15.38a.63.63,0,0,0-.39-.13C260.59,254.16,260.43,254.33,260.43,254.65Z" fill="#263238"/>
<path d="M243.66,246a3.19,3.19,0,0,1,3.34-3.22,3.09,3.09,0,0,1,2.39,1l-.58.57a2.35,2.35,0,0,0-1.77-.75,2.43,2.43,0,1,0,1.77,4.09l.58.57a3.14,3.14,0,0,1-2.4,1A3.19,3.19,0,0,1,243.66,246Z" fill="#263238"/>
<path d="m249.92 246.72a2.48 2.48 0 1 1 2.48 2.44 2.37 2.37 0 0 1 -2.48 -2.44zm4.08 0a1.61 1.61 0 1 0 -1.6 1.68 1.57 1.57 0 0 0 1.6 -1.68z" fill="#263238"/>
<path d="M264,246.36v2.75h-.87v-2.65c0-.94-.45-1.4-1.23-1.4a1.39,1.39,0,0,0-1.43,1.59v2.46h-.87v-2.65c0-.94-.45-1.4-1.23-1.4a1.39,1.39,0,0,0-1.43,1.59v2.46h-.86v-4.78h.82V245a2,2,0,0,1,1.65-.75,1.78,1.78,0,0,1,1.66.88,2.14,2.14,0,0,1,1.83-.88A1.83,1.83,0,0,1,264,246.36Z" fill="#263238"/>
<path d="M270.53,246.72a2.32,2.32,0,0,1-2.41,2.44,2,2,0,0,1-1.7-.81v.76h-.83v-6.68h.87v2.62a2,2,0,0,1,1.66-.76A2.31,2.31,0,0,1,270.53,246.72Zm-.87,0a1.61,1.61,0,1,0-1.61,1.68A1.57,1.57,0,0,0,269.66,246.72Z" fill="#263238"/>
<path d="m271.29 246.72a2.48 2.48 0 1 1 2.49 2.44 2.37 2.37 0 0 1 -2.49 -2.44zm4.09 0a1.61 1.61 0 1 0 -1.6 1.68 1.57 1.57 0 0 0 1.6 -1.68z" fill="#263238"/>
<path d="M283.91,248.32v.79h-4.53v-.62L282,246c.67-.65.79-1.05.79-1.44,0-.65-.46-1.05-1.34-1.05a2,2,0,0,0-1.61.69l-.61-.53a2.87,2.87,0,0,1,2.3-1c1.32,0,2.16.68,2.16,1.76a2.56,2.56,0,0,1-1,2l-1.93,1.85Z" fill="#263238"/>
<rect x="235.7" y="265.28" width="133.92" height="38.54" fill="#fff" opacity=".6" style="isolation:isolate"/>
<path d="m289.3 276.21h-46.06a1.07 1.07 0 0 1 -1.07 -1.07 1.07 1.07 0 0 1 1.07 -1.07h46.06a1.06 1.06 0 0 1 1.07 1.07 1.06 1.06 0 0 1 -1.07 1.07z" opacity=".2"/>
<path d="m362.08 282.16h-118.84a1.07 1.07 0 0 1 -1.07 -1.07 1.07 1.07 0 0 1 1.07 -1.07h118.84a1.07 1.07 0 0 1 1.07 1.07 1.07 1.07 0 0 1 -1.07 1.07z" opacity=".2"/>
<path d="m362.08 288.1h-118.84a1.06 1.06 0 0 1 -1.07 -1.07 1.07 1.07 0 0 1 1.07 -1.07h118.84a1.07 1.07 0 0 1 1.07 1.07 1.06 1.06 0 0 1 -1.07 1.07z" opacity=".2"/>
<path d="m362.08 294.05h-118.84a1.07 1.07 0 0 1 -1.07 -1.07 1.07 1.07 0 0 1 1.07 -1.07h118.84a1.07 1.07 0 0 1 1.07 1.07 1.07 1.07 0 0 1 -1.07 1.07z" opacity=".2"/>
<rect x="321.69" y="309.63" width="7.91" height="7.91" rx=".46" opacity=".2"/>
<rect x="325.14" y="311.62" width="1" height="3.93" fill="#fff"/>
<rect x="323.68" y="313.08" width="3.93" height="1" fill="#fff"/>
<rect x="275.72" y="309.63" width="7.91" height="7.91" rx=".46" opacity=".2"/>
<rect x="279.18" y="311.62" width="1" height="3.93" fill="#fff"/>
<rect x="277.71" y="313.08" width="3.93" height="1" fill="#fff"/>
<rect x="239.89" y="327.08" width="125.53" height="19" rx="3.51" fill="#A8DADC"/>
<path d="m281.45 336.63a4.28 4.28 0 1 1 4.29 4.11 4.09 4.09 0 0 1 -4.29 -4.11zm7.4 0a3.13 3.13 0 1 0 -3.11 3.09 3 3 0 0 0 3.11 -3.09z" fill="#fff"/>
<path d="m297.13 340.65l-1.74-2.47h-0.5-2v2.45h-1.15v-8h3.14c2.09 0 3.35 1.05 3.35 2.8a2.53 2.53 0 0 1 -1.77 2.54l1.91 2.7zm0-5.24c0-1.15-0.77-1.8-2.24-1.8h-2v3.62h2c1.43 0 2.2-0.67 2.2-1.82z" fill="#fff"/>
<path d="M300.1,332.61h3.39c2.58,0,4.34,1.63,4.34,4s-1.76,4-4.34,4H300.1Zm3.32,7a3,3,0,1,0,0-6h-2.17v6Z" fill="#fff"/>
<path d="m315.42 339.65v1h-5.83v-8h5.67v1h-4.53v2.47h4v1h-4v2.6z" fill="#fff"/>
<path d="m322.66 340.65l-1.74-2.47h-0.5-2v2.45h-1.15v-8h3.14c2.09 0 3.35 1.05 3.35 2.8a2.53 2.53 0 0 1 -1.76 2.57l1.91 2.7zm0-5.24c0-1.15-0.77-1.8-2.24-1.8h-1.95v3.62h1.95c1.43 0 2.2-0.67 2.2-1.82z" fill="#fff"/>
<path d="M362,181.27a19.57,19.57,0,0,1-3.16,14.16c-5.3,7.56-14.81,10.09-21.2,16.44-5.79,5.76-8.79,14.94-16.85,18.16-3.68,1.47-7.82,1.28-11.7.51-8.43-1.67-16-5.9-23.62-9.63-10.18-5-22-7.15-31.73-12.75-4.48-2.57-8.43-6.45-10-11.37-3.38-10.46,3.92-20.7,11.6-27,5.75-4.72,12.4-8.67,17.19-14.46,4.41-5.34,6.23-12.49,11.31-17.32,4.11-3.91,10-5.64,15.66-5.5,15.64.37,22.57,10.14,31.62,21,7.51,9,20.82,10.62,27.75,20.09A17.62,17.62,0,0,1,362,181.27Z" fill="#fff" opacity=".2" style="isolation:isolate"/>
<path d="m312.27 161.31l-3 41.46s11 7.51 23.28 4.32l11.93-37.4s-7.79-11.98-32.21-8.38z" fill="#263238"/>
<path d="m311.9 159.85l-0.32 4.43s9.4 8.83 32.5 8.19l2.14-4.92a36.56 36.56 0 0 0 -34.32 -7.7z" fill="#263238"/>
<path d="m311.9 159.85l-0.32 4.43s9.4 8.83 32.5 8.19l2.14-4.92a36.56 36.56 0 0 0 -34.32 -7.7z" fill="#fff" opacity=".8" style="isolation:isolate"/>
<path d="m345.34 167.62c-14 1.87-26-3.41-30.59-5.84-1.3-0.68-2-1.13-2-1.13 0.4-0.12 0.8-0.22 1.2-0.32a36 36 0 0 1 6 -1 35.15 35.15 0 0 1 18.17 3.53 31.44 31.44 0 0 1 7.22 4.76z" opacity=".2"/>
<path d="M351.53,151.72c-.51,4.66-.7,11.67-6.19,15.9a47.51,47.51,0,0,1-15.2-.5,55.35,55.35,0,0,1-8.44-2.32,54,54,0,0,1-6.95-3l0,0a12.15,12.15,0,0,1-.81-1.45c-.54-1.13-.91-2.53.38-2.79,2.2-.44,1.74-.69,1.6-1.77s.28-2.2.73-1.13.08,3.48.57,3.77,2.89-1.13,2.71,1a7.83,7.83,0,0,0,.06,2.53c0,.1.06.19.1.29a.08.08,0,0,0,0,.07,2.28,2.28,0,0,0,2.29,1.38c2.64.15,4.43-1.49,7.12-2.25s5.93-.58,6.44,2.26,2.77,1.81,2.26-.16l-.12-.59c-.33-1.94-.09-4.36.95-3.09s-.44,1.77.44,2.65,2.15-.6,2.59-3.2,2.46-8.29,0-11.43-1.65-3.79,0-3.41.76,3.21,2.39,4,2.15-3.35,1.27-5.37-2-5.43.5-5,2,3.79,2,6,.63,3.66,1.38,2.84a.75.75,0,0,1,1.05-.09h0C351.27,147.29,351.84,148.75,351.53,151.72Z" fill="#A8DADC"/>
<polygon points="327.25 148.78 330.78 145.75 334.88 148.78 334.88 152.82 331.35 154.14 327.25 152.37" fill="#A8DADC"/>
<polygon points="327.25 148.78 330.78 145.75 334.88 148.78 334.88 152.82 331.35 154.14 327.25 152.37" fill="#fff" opacity=".8" style="isolation:isolate"/>
<polygon points="330.78 145.75 330.78 150.72 334.88 152.82 334.88 148.78" fill="#fff" opacity=".5" style="isolation:isolate"/>
<path d="M350.61,146.83a4.79,4.79,0,0,0-1.77,3.78c-.2,3.48-1.32,3.35-3.5,1.88s-1.42,1.75-.89,8.14-5.26,7.38-7.82,6.5-.47-1.63-2.08-2.62c-1.4-.87-1.19,2.12-4.41,2.61a8.4,8.4,0,0,1-1.75,0c-3.14-.33-5.31-1.06-6.69-2.33a5.66,5.66,0,0,1-1.61-2.56,2.28,2.28,0,0,0,2.29,1.38c2.64.15,4.43-1.49,7.12-2.25s5.93-.58,6.44,2.26,2.77,1.81,2.26-.16l-.12-.59c-.33-1.94-.09-4.36.95-3.09s-.44,1.77.44,2.65,2.15-.6,2.59-3.2,2.46-8.29,0-11.43-1.65-3.79,0-3.41.76,3.21,2.39,4,2.15-3.35,1.27-5.37-2-5.43.5-5,2,3.79,2,6,.63,3.66,1.38,2.84A.75.75,0,0,1,350.61,146.83Z" opacity=".2"/>
<polygon points="325.26 164.67 322.1 163.98 322.06 160.43 324.3 158.74 326.52 160.14 327.25 163.16" fill="#A8DADC"/>
<polygon points="325.26 164.67 322.1 163.98 322.06 160.43 324.3 158.74 326.52 160.14 327.25 163.16" fill="#fff" opacity=".8" style="isolation:isolate"/>
<polygon points="322.1 163.98 324.85 161.9 324.3 158.74 322.06 160.43" fill="#fff" opacity=".5" style="isolation:isolate"/>
<path d="m331.07 178.1c9.47 0 8.72 18-2.64 17.94s-8.06-17.94 2.64-17.94z" fill="#fff" opacity=".8" style="isolation:isolate"/>
<path d="m330.82 179.51c8 0 7.35 15.15-2.23 15.12s-6.79-15.12 2.23-15.12z" opacity=".2"/>
<path d="m254.3 208.39s-2.65 4.26-2.65 5.39 2 6.72 3.31 7.95 17.23 5 36.63 2.09 24.8-11.93 25.75-14.11 0.62-10.51-1.47-10.88-57.87 6.62-61.57 9.56z" fill="#263238"/>
<path d="M317.34,209.72c-.95,2.17-6.35,11.17-25.75,14.09s-35.3-.85-36.63-2.07-3.31-6.82-3.31-8a5.68,5.68,0,0,1,.62-1.78c.8-1.62,2-3.61,2-3.61,3.69-2.93,59.49-9.94,61.57-9.56.65.11,1.13,1,1.45,2.22C318,203.77,318,208.22,317.34,209.72Z" fill="#fff" opacity=".5" style="isolation:isolate"/>
<path d="m317.32 201.05c-1.91 3.13-8.4 10.52-26.49 13.13-20.37 2.94-37.06-0.85-38.44-2.08l-0.12-0.1c0.8-1.62 2-3.61 2-3.61 3.69-2.93 59.49-9.94 61.57-9.56 0.68 0.11 1.16 0.99 1.48 2.22z" opacity=".2"/>
<path d="M253.64,208.25c-2.08-.15-3.13,1.46-1.9,2.5s3.51.19,3.6,2.28.19,4.73,1.42,3.31.1-3,3.41-2.46c2,.34,4.65,1.62,6.6.33.35-.23.64-.54,1-.75A7.5,7.5,0,0,1,269,213a9.21,9.21,0,0,0,1.59-.82c.65-.4,1.4-.94,1.37-1.71a1.52,1.52,0,0,0-1.4-1.29,5.29,5.29,0,0,0-2,.31q-1,.27-2,.45c-1.25.21-2.37-.35-3.59-.56-1.43-.25-2.87-.45-4.31-.62C256.93,208.55,255.29,208.37,253.64,208.25Z" fill="#A8DADC"/>
<path d="M272.76,210.85S278,215,280,214.92s2.61-.28,3.39.85,4.31,3.5,4.82,1.14,2.39-3.6,3.63-3.22,3.59,1,4.54-.75a2.46,2.46,0,0,1,1.58-1.38c.63-.24,1.27-.49,1.9-.7a13.18,13.18,0,0,0,2.43-.55c.83-.47,1.14-1.49,1.7-2.26a4,4,0,0,1,2.44-1.56,23.18,23.18,0,0,1,2.51-.12,2.62,2.62,0,0,0,2.13-1.12c.36-.64.26-1.45.56-2.13a2,2,0,0,1,2.5-1.07,2.28,2.28,0,0,0,.84.26c.68,0,1.31-1,1.84-.6s.28,1.09.93,1.38c.07-1.1,0-2.21.05-3.31a2,2,0,0,0-.21-1.12,4.71,4.71,0,0,0-4.46-2.59c-2.17-.08-4.5-.1-6.31,1.11s-2.66,3.32-4.22,4.78a12.92,12.92,0,0,1-2.94,1.94,72.13,72.13,0,0,1-8.2,3.74c-2.55,1-5.75,1-8.47,1.39C279.59,209.59,276.16,210.18,272.76,210.85Z" fill="#A8DADC"/>
<path d="M316.13,200.43c-.34,1.35-1.65,2.32-2.74,3.1l-1,.72a9,9,0,0,1-2,1.19,11.23,11.23,0,0,1-2.31.44,20.24,20.24,0,0,0-8.77,3.47,5.88,5.88,0,0,1-2.25,1.21,12,12,0,0,1-2.24-.07,2,2,0,0,0-1.93.89,2,2,0,0,1-.32.61,1.07,1.07,0,0,1-.59.2,62.82,62.82,0,0,1-7.5.49c-2.55,0-5.11-.13-7.65-.27l-5-.29a12.74,12.74,0,0,0-2.47,0c-.79.1-1.57.35-2.35.51a20.54,20.54,0,0,1-2.93.23l-3,.07c-2.6.07-4.84-1.23-7.24-2.16a2,2,0,0,1-.81-.48c-.59-.68,0-1.79-.33-2.63a2.67,2.67,0,0,1-.23-.59,2,2,0,0,1,.24-.84,1.52,1.52,0,0,0,.09-.28,2.65,2.65,0,0,0-.33-1.18,4.13,4.13,0,0,1-.23-1.26,4.3,4.3,0,0,1,0-.72,1.85,1.85,0,0,1,.16-.52c.48-1,2.71-.92,3.67-1.16,6.85-1.76,13.86-3,20.82-4.22q12.24-2.18,24.55-4c3-.42,6-.83,9-1.15a15.18,15.18,0,0,1,3.18-.27,2.33,2.33,0,0,1,1.44.67,1.11,1.11,0,0,1,.25.36,1.94,1.94,0,0,1-.11,1.27,6.38,6.38,0,0,0,0,2,2,2,0,0,0,.24,1,2.71,2.71,0,0,1,.38.51c.19.44,0,1,0,1.53S316.32,199.68,316.13,200.43Z" fill="#263238"/>
<path d="M314.55,195.72c-.33,1.37-1.64,2.33-2.73,3.11l-1,.71a8.65,8.65,0,0,1-2,1.19,10.64,10.64,0,0,1-2.3.45,20,20,0,0,0-8.78,3.48,5.92,5.92,0,0,1-2.25,1.2,11.25,11.25,0,0,1-2.24-.08,2,2,0,0,0-1.93.89,1.87,1.87,0,0,1-.32.61,1.08,1.08,0,0,1-.59.21,64.82,64.82,0,0,1-7.49.5c-2.56,0-5.11-.14-7.66-.29l-5-.29a13.59,13.59,0,0,0-2.47,0c-.79.11-1.56.35-2.35.5a17.82,17.82,0,0,1-2.93.23l-3,.08c-2.44.07-4.57-1.08-6.8-2a1.52,1.52,0,0,0,.09-.28,2.65,2.65,0,0,0-.33-1.18,4.13,4.13,0,0,1-.23-1.26,4.3,4.3,0,0,1,0-.72,1.85,1.85,0,0,1,.16-.52c.48-1,2.71-.92,3.67-1.16,6.85-1.76,13.86-3,20.82-4.22q12.24-2.18,24.55-4c3-.42,6-.83,9-1.15a15.18,15.18,0,0,1,3.18-.27,1.38,1.38,0,0,0,.19.55,2.66,2.66,0,0,1,.38.52c.2.43,0,1.05,0,1.52C314.42,194.74,314.74,195,314.55,195.72Z" opacity=".2"/>
<path d="M250.8,201.05c-.4,1.08,7.85,12,7.85,12s11.83-9.37,19.88-10.7,34.64.1,34.64.1,1.55-9.29,1.3-11.51S255.25,189.08,250.8,201.05Z" fill="#A8DADC"/>
<path d="M250.8,201.05c-.4,1.08,7.85,12,7.85,12s11.83-9.37,19.88-10.7,34.64.1,34.64.1,1.55-9.29,1.3-11.51S255.25,189.08,250.8,201.05Z" fill="#fff" opacity=".7" style="isolation:isolate"/>
<path d="M258.42,200.34l2.59,5.51s5.5-2,7.39,0a6.1,6.1,0,0,1,1.9,3.86s1.4-6.15,3.82-4.68a24,24,0,0,1,4.5,3.74s3.41-5.59,6.44-3.74l3,1.84s2.46-5.58,6.25-5.82,5.35.34,5.67-.71,8.9-7,12.88-6.76l4,.23s.76-5.3,3-5.3c0,0-4.54-2.63-4.45-5.9,0-1.25-2.93,1.86-5,0s-61.79,10.09-61.79,10.09.45-.48-2.39.88,1.14,1,0,3.94,4.17-.17,5.68,1.94S258.42,200.34,258.42,200.34Z" fill="#A8DADC"/>
<path d="M258.42,200.34l2.59,5.51s5.5-2,7.39,0a6.1,6.1,0,0,1,1.9,3.86s1.4-6.15,3.82-4.68a24,24,0,0,1,4.5,3.74s3.41-5.59,6.44-3.74l3,1.84s2.46-5.58,6.25-5.82,5.35.34,5.67-.71,8.9-7,12.88-6.76l4,.23s.76-5.3,3-5.3c0,0-4.54-2.63-4.45-5.9,0-1.25-2.93,1.86-5,0s-61.79,10.09-61.79,10.09.45-.48-2.39.88,1.14,1,0,3.94,4.17-.17,5.68,1.94S258.42,200.34,258.42,200.34Z" fill="#fff" opacity=".5" style="isolation:isolate"/>
<path d="M273.45,199.8c-4.29,6.63-23.72,8.27-25.22,2.63a9,9,0,0,1-.24-3.65,7.74,7.74,0,0,1,2.74-4.91c8.12-4.22,21.18-2,23.14,2.67A3.33,3.33,0,0,1,273.45,199.8Z" fill="#A8DADC"/>
<path d="m273.87 196.54a4.72 4.72 0 0 1 -0.42 0.8c-4.29 6.63-23.72 8.27-25.22 2.64a9.79 9.79 0 0 1 -0.24 -1.2 7.74 7.74 0 0 1 2.74 -4.91c8.12-4.22 21.18-1.95 23.14 2.67z" opacity=".2"/>
<path d="M313.79,195.87c-4.28,6.62-23.72,8.27-25.21,2.63a8.88,8.88,0,0,1-.24-3.66,7.73,7.73,0,0,1,2.74-4.9c8.11-4.23,21.17-2,23.14,2.67A3.34,3.34,0,0,1,313.79,195.87Z" fill="#A8DADC"/>
<path d="M314.22,192.61a4.84,4.84,0,0,1-.43.8c-4.28,6.62-23.72,8.27-25.21,2.63a7.72,7.72,0,0,1-.24-1.2,7.73,7.73,0,0,1,2.74-4.9C299.19,185.71,312.25,188,314.22,192.61Z" opacity=".2"/>
<path d="m279.83 164.28c20.38-1.7 38 16.07 34.08 25.26s-59.1 17-64.29 6.47 8.77-29.94 30.21-31.73z" fill="#263238"/>
<path d="m279.83 164.28c20.38-1.7 38 16.07 34.08 25.26s-59.1 17-64.29 6.47 8.77-29.94 30.21-31.73z" fill="#fff" opacity=".5" style="isolation:isolate"/>
<path d="m278.34 175.76s-0.95 2.34 0 2.34 0-2.34 0-2.34z" fill="#fff" opacity=".2" style="isolation:isolate"/>
<path d="m285.82 173s1.7 2.27 1.8 1.23-1.8-1.23-1.8-1.23z" fill="#fff" opacity=".2" style="isolation:isolate"/>
<path d="m274.65 172.14s-2.56 0.47-1.89 1.13 1.89-1.13 1.89-1.13z" fill="#fff" opacity=".2" style="isolation:isolate"/>
<path d="M266.51,175s-1.89.15-1.61.78S266.51,175,266.51,175Z" fill="#fff" opacity=".2" style="isolation:isolate"/>
<path d="m271.34 167.22s-2.09-0.29-2.09 0.38 2.09-0.38 2.09-0.38z" fill="#fff" opacity=".2" style="isolation:isolate"/>
<path d="m278.76 168.35s-0.33 1.8 0.43 1.61-0.43-1.61-0.43-1.61z" fill="#fff" opacity=".2" style="isolation:isolate"/>
<path d="m290.67 170s1.68 0.77 1.68 0-1.68 0-1.68 0z" fill="#fff" opacity=".2" style="isolation:isolate"/>
<path d="m284.79 166.08s0.93-1 1.41-0.76-1.41 0.76-1.41 0.76z" fill="#fff" opacity=".2" style="isolation:isolate"/>
<path d="m276.45 166.08c1-0.19 0.47 1.08 0.47 1.08s-1.51-0.89-0.47-1.08z" fill="#fff" opacity=".2" style="isolation:isolate"/>
<path d="m270.3 179.8s-1.24 0.76-1.05 1.33 1.05-1.33 1.05-1.33z" fill="#fff" opacity=".2" style="isolation:isolate"/>
<path d="m296.51 175.45s2.08 0.78 1.33 1.48-1.33-1.48-1.33-1.48z" fill="#fff" opacity=".2" style="isolation:isolate"/>
<path d="m284.79 181.24s0.59 1.15 0 1.37 0-1.37 0-1.37z" fill="#fff" opacity=".2" style="isolation:isolate"/>
<path d="M313.91,189.54c-3.93,9.19-59.1,17-64.29,6.46a10.6,10.6,0,0,1-1-3.72,7.47,7.47,0,0,0,.39.92c5.19,10.53,60.36,2.73,64.29-6.47a7.55,7.55,0,0,0,.53-3.6A8.82,8.82,0,0,1,313.91,189.54Z" opacity=".2"/>
<rect transform="translate(480.25 747.64) rotate(180)" x="204.7" y="343.86" width="70.85" height="59.93" rx="9.87" fill="#263238"/>
<rect transform="translate(480.25 747.64) rotate(180)" x="204.7" y="343.86" width="70.85" height="59.93" rx="9.87" fill="#fff" opacity=".1" style="isolation:isolate"/>
<path d="m265.68 403.78a9.87 9.87 0 0 0 9.87 -9.86v-40.2a9.86 9.86 0 0 0 -9.87 -9.86 9.85 9.85 0 0 0 -9.86 9.86v40.2a9.86 9.86 0 0 0 9.86 9.86z" fill="#fff" opacity=".2" style="isolation:isolate"/>
<path d="M204.86,363.75H100.49l-15.9-82.14a14.55,14.55,0,0,1,14.28-17.32H173.6a14.57,14.57,0,0,1,14.29,11.79Z" fill="#263238"/>
<g opacity=".1" style="isolation:isolate">
<path d="M204.86,363.75H100.49l-15.9-82.14a14.55,14.55,0,0,1,14.28-17.32H173.6a14.57,14.57,0,0,1,14.29,11.79Z" fill="#fff"/>
</g>
<path d="M204.87,363.59H130.13l-17-87.59a14.47,14.47,0,0,0-14.29-11.7H173.6A14.5,14.5,0,0,1,187.89,276Z" fill="#fff" opacity=".2" style="isolation:isolate"/>
<path d="M202.43,305.67a31.85,31.85,0,0,0-3-6.41,40.53,40.53,0,0,0-3.84-5.44,3.55,3.55,0,0,0-6.22,3l.05.22c.33,1.55.69,3.15,1,4.71-1.17-1.24-2.35-2.54-3.52-3.87-2.56-2.91-5.16-6-7.64-8.93l-.09-.1a7,7,0,0,0-6-2.43,7.43,7.43,0,0,0-1.05.18,6.87,6.87,0,0,0-2.57,1.24,7,7,0,0,0-1.31,9.85c1.37,1.79,2.77,3.5,4.2,5.16s2.69,3,4.11,4.53,3,3.06,4.64,4.56c.5.45,1,.9,1.52,1.35a48.46,48.46,0,0,0,3.91,3.08,22,22,0,0,0,3.95,2.21c.22.09.45.18.72.27a8.5,8.5,0,0,0,.84.26,10.33,10.33,0,0,0,1,.22l.62.08a6.6,6.6,0,0,0,.69,0c.26,0,.48,0,.77,0a8.62,8.62,0,0,0,.87-.11,8,8,0,0,0,1.21-.32,8.57,8.57,0,0,0,2.47-1.31,8.31,8.31,0,0,0,3-4.28,10.32,10.32,0,0,0,.43-3.32A15.39,15.39,0,0,0,202.43,305.67Z" fill="#ce7a63"/>
<path d="M202.43,305.67a31.85,31.85,0,0,0-3-6.41,40.53,40.53,0,0,0-3.84-5.44,3.55,3.55,0,0,0-6.22,3l.05.22c.33,1.55.69,3.15,1,4.71-1.17-1.24-2.35-2.54-3.52-3.87-2.56-2.91-5.16-6-7.64-8.93l-.09-.1a7,7,0,0,0-6-2.43,7.43,7.43,0,0,0-1.05.18,6.87,6.87,0,0,0-2.57,1.24,7,7,0,0,0-1.31,9.85c1,1.34,2.07,2.64,3.13,3.91h0l1.06,1.24q2,2.3,4.11,4.53c1.48,1.54,3,3.06,4.64,4.56l1.39,1.24a.75.75,0,0,0,.13.11,48.46,48.46,0,0,0,3.91,3.08,22,22,0,0,0,3.95,2.21c.22.09.45.18.72.27a8.5,8.5,0,0,0,.84.26,10.33,10.33,0,0,0,1,.22l.62.08a6.6,6.6,0,0,0,.69,0c.26,0,.48,0,.77,0a8.62,8.62,0,0,0,.87-.11,8,8,0,0,0,1.21-.32,8.57,8.57,0,0,0,2.47-1.31,8.31,8.31,0,0,0,3-4.28,10.32,10.32,0,0,0,.43-3.32A15.39,15.39,0,0,0,202.43,305.67Z" opacity=".1"/>
<path d="M188.47,296l-.58-2.93a6.22,6.22,0,0,1,.21-3.2l.66-1.94a2.81,2.81,0,0,1,3.06-1.88l2,.29a2.83,2.83,0,0,1,2.38,3.23l-.27,1.71s-.18,4.86-2.63,7.85l-1.06-.23A5.28,5.28,0,0,1,188.47,296Z" fill="#ce7a63"/>
<path d="M188.47,296l-.58-2.93a6.22,6.22,0,0,1,.21-3.2l.66-1.94a2.81,2.81,0,0,1,3.06-1.88l2,.29a2.83,2.83,0,0,1,2.38,3.23l-.27,1.71s-.18,4.86-2.63,7.85l-1.06-.23A5.28,5.28,0,0,1,188.47,296Z" opacity=".1"/>
<path d="M182.65,313.17l-1.39-1.24c-1.63-1.5-3.16-3-4.64-4.56s-2.79-3-4.11-4.53l-1.06-1.24h0c-.4-4.58-.35-8.55.35-10.58.07-.2.15-.37.22-.53a7,7,0,0,1,.84.35C175.56,292.13,183,296.31,182.65,313.17Z" opacity=".2"/>
<path d="m177.68 290.76c0.54 3.34 7.35 9.89 1.83 15.66 1.77 2.44 6.58 20.47 4.82 24.24-3 3.35-22.36 6.85-38.75 8.07-2.05-6.46-1.26-20.88-10.14-41.25-2.06-4.73 2.17-11.68 11.64-15.26a25.71 25.71 0 0 1 13.11 -0.86c4.65 0.91 16.51 3.43 17.49 9.4z" fill="#A8DADC"/>
<path d="m184.33 330.66c-3 3.35-22.35 6.85-38.75 8.07-1-3.25-1.35-8.54-2.53-15.58a108 108 0 0 0 -5.36 -20.15c-0.67-1.8-1.42-3.65-2.25-5.57-2.06-4.71 2.17-11.67 11.64-15.25a25.62 25.62 0 0 1 13.11 -0.85c4.65 0.9 16.51 3.41 17.49 9.39 0.55 3.33 7.35 9.89 1.83 15.66 1.77 2.48 6.58 20.51 4.82 24.28z" fill="#fff" opacity=".7" style="isolation:isolate"/>
<path d="m172.93 249.88s4-4.73-6.45-8.58-23.5 1-24.62 15.16-7.74 16.55-1.81 21.37 15.47-0.49 24.46 0.58 10.37 5.13 11.71-2.75 0.38-17.88 0.38-17.88 1.75-7.43-3.67-7.9z" fill="#263238"/>
<path d="M150.9,265.71c0,5.17-.84,13.4-3.82,17.14,0,0,4.66,3.34,15.73,10.25,4-7.08-.53-8.5-.53-8.5-3.59-1.86-2.56-4.39-1.65-8Z" fill="#ce7a63"/>
<path d="m160.47 276.55-8.47-6.93a4.57 4.57 0 0 0 0.12 3.18c1.21 3.28 4.7 6.29 7.85 8.12a15 15 0 0 1 0.5 -4.37z" opacity=".2"/>
<path d="m137.07 301.45a105.86 105.86 0 0 1 4.26 13.4c2.61-5.86 4.86-16 3.73-20.22z" opacity=".2"/>
<path d="m150 255.87c-0.57 8.37-1 11.9 2.57 16.69 5.36 7.21 15.57 6.05 18.58-2 2.72-7.24 3.2-19.71-4.35-24s-16.27 0.94-16.8 9.31z" fill="#ce7a63"/>
<path d="M161.81,262.53c-.08.61.18,1.15.58,1.2s.79-.4.87-1-.18-1.15-.59-1.21S161.88,261.92,161.81,262.53Z" fill="#263238"/>
<path d="M169.34,263.61c-.08.62.18,1.16.58,1.21s.79-.41.87-1-.18-1.15-.58-1.2S169.42,263,169.34,263.61Z" fill="#263238"/>
<path d="m170 262.61l1.53-0.24s-0.88 1.06-1.53 0.24z" fill="#263238"/>
<path d="M167.45,263.54a16.53,16.53,0,0,0,1.68,4.2,2.67,2.67,0,0,1-2.24.13Z" fill="#ba4d3c"/>
<path d="m147.12 262.94a5.39 5.39 0 0 0 2.27 3.8c1.62 1.05 3.11-0.62 3.23-2.76 0.1-1.92-0.62-4.78-2.52-5s-3.26 1.96-2.98 3.96z" fill="#ce7a63"/>
<path d="M160.78,258.6a.39.39,0,0,0,.27-.11,2.91,2.91,0,0,1,2.45-.94.36.36,0,0,0,.42-.29.35.35,0,0,0-.29-.42,3.57,3.57,0,0,0-3.11,1.14.37.37,0,0,0,0,.52A.39.39,0,0,0,160.78,258.6Z" fill="#263238"/>
<path d="M172.51,260.66a.4.4,0,0,0,.26-.06.36.36,0,0,0,.09-.51A3.61,3.61,0,0,0,170,258.5a.37.37,0,0,0-.35.38.37.37,0,0,0,.38.35,2.86,2.86,0,0,1,2.29,1.28A.37.37,0,0,0,172.51,260.66Z" fill="#263238"/>
<path d="m162.49 261.52l1.53-0.23s-0.9 1.05-1.53 0.23z" fill="#263238"/>
<path d="m169.69 247.15c-2.06 7.56-16.41 13.66-20.46 14.31s-4.44-6.84-0.3-11.61 13.07-8.85 20.76-2.7z" fill="#263238"/>
<path d="M168.55,247.63a14.25,14.25,0,0,1-4.68,8.13s5.11-1.31,7.68-4.85Z" fill="#263238"/>
<path d="M165,270.87a20.48,20.48,0,0,0-2.3,1.95l-.43-.32c-1.92-1.45-2.34-2.76-2.21-3.77a3.07,3.07,0,0,1,.55-1.36,2.75,2.75,0,0,1,.56-.63,11.27,11.27,0,0,0,3.18,3.62C164.78,270.69,165,270.87,165,270.87Z" fill="#263238"/>
<path d="M164.39,270.36l-.69.56c-1.81-1.37-2.9-2.58-3-3.55a2.75,2.75,0,0,1,.56-.63A11.27,11.27,0,0,0,164.39,270.36Z" fill="#fff"/>
<path d="m162.31 272.5c-1.92-1.45-2.34-2.76-2.21-3.77a7.94 7.94 0 0 1 1.81 2 2.89 2.89 0 0 1 0.4 1.77z" fill="#a24e3f"/>
<path d="M181.77,294.93a.63.63,0,0,0,.53.79l7,1a.83.83,0,0,0,.9-.59l3.49-13.61a.71.71,0,0,0-.52-.89l-7-1a.94.94,0,0,0-.91.69Z" fill="#263238"/>
<path d="M186.05,281.34l-3.53,13.74a.53.53,0,0,0,.45.73l5.94.83c.4.06,1.16-.06,1.26-.44l3.55-13.79c.1-.38-.54-.79-.94-.85l-5.94-.83A.72.72,0,0,0,186.05,281.34Z" fill="#fff" opacity=".5"/>
<path d="M176,296.66l2.39-5.14,7.49,5.49s-3.29,4.5-7.46,5.75l-.83-.9A6.08,6.08,0,0,1,176,296.66Z" fill="#ce7a63"/>
<path d="m184.41 289.93l2.35 2.24a2.68 2.68 0 0 1 0.1 3.79l-1 1.05-7.49-5.49 2.63-1.85a2.69 2.69 0 0 1 3.41 0.26z" fill="#ce7a63"/>
<path d="m153.39 324.57c-3.12 2.24-7.21 0.59-10.34-1.42a108 108 0 0 0 -5.36 -20.15 2.67 2.67 0 0 1 0.68 -1c3.14-2.61 20.82 18.38 15.02 22.57z" opacity=".2"/>
<path d="M147.23,294.31c.09.42.23,1.09.36,1.65l.43,1.78c.3,1.19.6,2.38.95,3.54a57.42,57.42,0,0,0,2.36,6.67,24.69,24.69,0,0,0,3,5.33,9.89,9.89,0,0,0,1.53,1.56,3.82,3.82,0,0,0,1.24.69s.27.05-.15,0h-.36l-.27,0c-.33.07-.39.11-.42.15s.28-.07.62-.24a16,16,0,0,0,2.51-1.74,69.93,69.93,0,0,0,5.5-5c3.67-3.64,7.29-7.63,10.93-11.5l.06-.06a3.51,3.51,0,0,1,5.71,3.95,106.61,106.61,0,0,1-8.58,14.44,64.26,64.26,0,0,1-5.55,6.84,29.36,29.36,0,0,1-3.78,3.38,14.06,14.06,0,0,1-2.95,1.67,9.82,9.82,0,0,1-2.37.67c-.22,0-.52.07-.78.09a8.21,8.21,0,0,1-.87,0,11.31,11.31,0,0,1-1.15-.1,16.26,16.26,0,0,1-6.3-2.16,20.86,20.86,0,0,1-4.59-3.73,33.85,33.85,0,0,1-5.62-8.35,56.41,56.41,0,0,1-3.33-8.52c-.43-1.43-.83-2.85-1.16-4.3-.17-.72-.33-1.44-.47-2.18s-.26-1.41-.4-2.33a7,7,0,0,1,13.83-2.47Z" fill="#ce7a63"/>
<path d="m316.88 374c-5.68 4.33-12.51 3.88-15.59-0.32-1.7-2.32-8.68 3.57-8.68 3.57 7 5.65 6.47 7.8 7.55 9.9s2.87 3.9 4.31 2.68c1.72-1.47 2.22-2.49 4.39-4.28 2.54-2.09 5.28-4.37 9.64-8.25 1.75-1.53 0.91-5.2-1.62-3.3z" fill="#263238"/>
<path d="m303.46 373.82l-7 7.28c-10.57-4.15-19.36-8-26.67-11.52-34-16.39-36.42-25.84-41.16-26.35a6.58 6.58 0 0 0 -2.75 0.74c-11.13 4.73-46.65 30.42-65 25-20.37-6-15.32-30.23-15.32-30.23 54.64-18.14 88.81-20.81 102.83-12s55.07 47.08 55.07 47.08z" fill="#A8DADC"/>
<path d="m303.46 373.82l-7 7.28c-10.57-4.15-19.36-8-26.67-11.52-34-16.39-36.42-25.84-41.16-26.35a6.58 6.58 0 0 0 -2.75 0.74c-11.13 4.73-46.65 30.42-65 25-20.37-6-15.32-30.23-15.32-30.23 54.64-18.14 88.81-20.81 102.83-12s55.07 47.08 55.07 47.08z" opacity=".2" style="isolation:isolate"/>
<path d="m269.78 369.58c-34-16.39-36.42-25.84-41.16-26.35a6.58 6.58 0 0 0 -2.75 0.74l0.12-0.44s14.69-3.89 24.6-0.48c7.17 2.47 15.27 18.1 19.19 26.53z" opacity=".2"/>
<polygon points="241.25 401.42 244.22 419.61 237.86 419.61 232.01 402.26" fill="#263238"/>
<polygon points="161.15 401.42 158.18 419.61 164.55 419.61 170.39 402.26" fill="#263238"/>
<polygon points="241.25 401.42 244.22 419.61 237.86 419.61 232.01 402.26" fill="#fff" opacity=".1" style="isolation:isolate"/>
<polygon points="161.15 401.42 158.18 419.61 164.55 419.61 170.39 402.26" fill="#fff" opacity=".1" style="isolation:isolate"/>
<polygon points="195.49 401.42 198.46 419.61 192.1 419.61 186.25 402.26" fill="#263238"/>
<polygon points="108.6 401.42 105.63 419.61 111.99 419.61 117.84 402.26" fill="#263238"/>
<rect x="96.2" y="363.59" width="157.78" height="42.43" rx="7.33" fill="#263238"/>
<rect x="96.2" y="363.59" width="157.78" height="42.43" rx="7.33" fill="#fff" opacity=".1" style="isolation:isolate"/>
<rect x="151.3" y="363.59" width="102.68" height="42.43" rx="7.33" fill="#fff" opacity=".2" style="isolation:isolate"/>
<rect transform="translate(228.88 747.64) rotate(180)" x="79.01" y="343.86" width="70.85" height="59.93" rx="9.87" fill="#263238"/>
<rect transform="translate(228.88 747.64) rotate(180)" x="79.01" y="343.86" width="70.85" height="59.93" rx="9.87" fill="#fff" opacity=".1" style="isolation:isolate"/>
<path d="m140 403.78a9.87 9.87 0 0 0 9.87 -9.86v-40.2a9.86 9.86 0 0 0 -9.87 -9.86 9.86 9.86 0 0 0 -9.87 9.86v40.2a9.87 9.87 0 0 0 9.87 9.86z" fill="#fff" opacity=".2" style="isolation:isolate"/>
<path d="m261.42 413.5a41.87 41.87 0 0 0 -1.3 -11.32s7.42-3.93 7.79-1.11c0.67 5.12 5.45 12.6 11.37 13.61 3.38 0.58 1.16 3.16-1.27 3.79-3.87 1-4.21 0.4-7.6-0.62-2.89-0.88-4-1.22-6.39-0.59-1.96 0.52-2.5-1.41-2.6-3.76z" fill="#263238"/>
<path d="M269,401.42l-9,4.24s-22.11-32.81-25.25-41.47c0,0-15.09.3-35.46-.33-3.7-.11-5.89,0-9.88-.27,0,0,19.24-17.34,36.58-20.06.89-.14,1.76-.24,2.63-.3,0,0,15.42-1.21,19.78,2.52S269,401.42,269,401.42Z" fill="#A8DADC"/>
<path d="M269,401.42l-9,4.24s-22.11-32.81-25.25-41.47c0,0-15.09.3-35.46-.33-3.7-.11-5.89,0-9.88-.27,0,0,19.24-17.34,36.58-20.06.89-.14,1.76-.24,2.63-.3,0,0,15.42-1.21,19.78,2.52S269,401.42,269,401.42Z" opacity=".2"/>
<path d="m226 343.53c-6.76 8.11-17.87 15.26-26.7 20.33-3.7-0.11-5.89 0-9.88-0.27-0.01 0 19.23-17.34 36.58-20.06z" opacity=".2"/>
</svg>
